<?xml version="1.0" encoding="UTF-8"?>
<svg width="18px" height="20px" viewBox="0 0 18 20" version="1.1" xmlns="http://www.w3.org/2000/svg" xmlns:xlink="http://www.w3.org/1999/xlink">
    <title>95CA0BB3-31DE-4F47-8B1F-3AE1F4AF5A0C</title>
    <g id="Page-1" stroke="none" stroke-width="1" fill="none" fill-rule="evenodd">
        <g id="CoBase---Task-Manager---Desktop" transform="translate(-45.000000, -346.000000)" fill="#FACA00">
            <g id="Options" transform="translate(0.000000, 91.000000)">
                <g id="Icon" transform="translate(30.000000, 241.000000)">
                    <path d="M30,32 L18,32 L18,30.6 C18,28.6 22,27.5 24,27.5 C26,27.5 30,28.6 30,30.6 L30,32 Z M24,20 C25.66,20 27,21.34 27,23 C27,24.66 25.66,26 24,26 C22.34,26 21,24.66 21,23 C21,21.34 22.34,20 24,20 L24,20 Z M24,16 C24.55,16 25,16.45 25,17 C25,17.55 24.55,18 24,18 C23.45,18 23,17.55 23,17 C23,16.45 23.45,16 24,16 L24,16 Z M31,16 L26.82,16 C26.4,14.84 25.3,14 24,14 C22.7,14 21.6,14.84 21.18,16 L17,16 C15.9,16 15,16.9 15,18 L15,32 C15,33.1 15.9,34 17,34 L31,34 C32.1,34 33,33.1 33,32 L33,18 C33,16.9 32.1,16 31,16 L31,16 Z"></path>
                </g>
            </g>
        </g>
    </g>
</svg>