<?xml version="1.0" encoding="UTF-8"?>
<svg width="40px" height="40px" viewBox="0 0 40 40" version="1.1" xmlns="http://www.w3.org/2000/svg" xmlns:xlink="http://www.w3.org/1999/xlink">
    <title>82A8D6C5-5CDF-49BE-8328-4EE649B12ED6</title>
    <defs>
        <rect id="path-1" x="0" y="0" width="32" height="32" rx="16"></rect>
        <filter x="-17.2%" y="-17.2%" width="140.6%" height="140.6%" filterUnits="objectBoundingBox" id="filter-2">
            <feOffset dx="1" dy="1" in="SourceAlpha" result="shadowOffsetOuter1"></feOffset>
            <feGaussianBlur stdDeviation="2" in="shadowOffsetOuter1" result="shadowBlurOuter1"></feGaussianBlur>
            <feComposite in="shadowBlurOuter1" in2="SourceAlpha" operator="out" result="shadowBlurOuter1"></feComposite>
            <feColorMatrix values="0 0 0 0 0   0 0 0 0 0   0 0 0 0 0  0 0 0 0.152202219 0" type="matrix" in="shadowBlurOuter1" result="shadowMatrixOuter1"></feColorMatrix>
            <feOffset dx="1" dy="1" in="SourceAlpha" result="shadowOffsetOuter2"></feOffset>
            <feGaussianBlur stdDeviation="0.5" in="shadowOffsetOuter2" result="shadowBlurOuter2"></feGaussianBlur>
            <feComposite in="shadowBlurOuter2" in2="SourceAlpha" operator="out" result="shadowBlurOuter2"></feComposite>
            <feColorMatrix values="0 0 0 0 0.125469364   0 0 0 0 0.131000554   0 0 0 0 0.137914541  0 0 0 0.0899852808 0" type="matrix" in="shadowBlurOuter2" result="shadowMatrixOuter2"></feColorMatrix>
            <feMerge>
                <feMergeNode in="shadowMatrixOuter1"></feMergeNode>
                <feMergeNode in="shadowMatrixOuter2"></feMergeNode>
            </feMerge>
        </filter>
        <rect id="path-3" x="0" y="0" width="32" height="32" rx="16"></rect>
        <filter x="-1.6%" y="-1.6%" width="103.1%" height="103.1%" filterUnits="objectBoundingBox" id="filter-4">
            <feOffset dx="1" dy="1" in="SourceAlpha" result="shadowOffsetInner1"></feOffset>
            <feComposite in="shadowOffsetInner1" in2="SourceAlpha" operator="arithmetic" k2="-1" k3="1" result="shadowInnerInner1"></feComposite>
            <feColorMatrix values="0 0 0 0 1   0 0 0 0 1   0 0 0 0 1  0 0 0 0.200747283 0" type="matrix" in="shadowInnerInner1"></feColorMatrix>
        </filter>
    </defs>
    <g id="Page-1" stroke="none" stroke-width="1" fill="none" fill-rule="evenodd">
        <g id="CoBase-/-Task-Manager-/-Desktop" transform="translate(-609.000000, -217.000000)">
            <g id="Group" transform="translate(612.000000, 220.000000)">
                <g id="Round-Buttons-/-Edit">
                    <g id="Background">
                        <use fill="black" fill-opacity="1" filter="url(#filter-2)" xlink:href="#path-1"></use>
                        <rect stroke-opacity="0.05" stroke="#000000" stroke-width="1" stroke-linejoin="square" fill="#0093EE" fill-rule="evenodd" x="0.5" y="0.5" width="31" height="31" rx="15.5"></rect>
                    </g>
                    <g id="Inner-Shadow" fill="black" fill-opacity="1">
                        <use filter="url(#filter-4)" xlink:href="#path-3"></use>
                    </g>
                </g>
                <g id="Icons-White-/-Location-Icon" transform="translate(9.000000, 10.000000)" fill="#FFFFFF">
                    <path d="M7,4.45454545 C5.59363636,4.45454545 4.45454545,5.59363636 4.45454545,7 C4.45454545,8.40636364 5.59363636,9.54545455 7,9.54545455 C8.40636364,9.54545455 9.54545455,8.40636364 9.54545455,7 C9.54545455,5.59363636 8.40636364,4.45454545 7,4.45454545 L7,4.45454545 Z M12.6890909,6.36363636 C12.3963636,3.71 10.29,1.60363636 7.63636364,1.31090909 L7.63636364,0 L6.36363636,0 L6.36363636,1.31090909 C3.71,1.60363636 1.60363636,3.71 1.31090909,6.36363636 L0,6.36363636 L0,7.63636364 L1.31090909,7.63636364 C1.60363636,10.29 3.71,12.3963636 6.36363636,12.6890909 L6.36363636,14 L7.63636364,14 L7.63636364,12.6890909 C10.29,12.3963636 12.3963636,10.29 12.6890909,7.63636364 L14,7.63636364 L14,6.36363636 L12.6890909,6.36363636 L12.6890909,6.36363636 Z M7,11.4545455 C4.53727273,11.4545455 2.54545455,9.46272727 2.54545455,7 C2.54545455,4.53727273 4.53727273,2.54545455 7,2.54545455 C9.46272727,2.54545455 11.4545455,4.53727273 11.4545455,7 C11.4545455,9.46272727 9.46272727,11.4545455 7,11.4545455 L7,11.4545455 Z" id="Icon"></path>
                </g>
            </g>
        </g>
    </g>
</svg>