<?xml version="1.0" encoding="UTF-8"?>
<svg width="18px" height="20px" viewBox="0 0 18 20" version="1.1" xmlns="http://www.w3.org/2000/svg" xmlns:xlink="http://www.w3.org/1999/xlink">
    <title>491D1017-D66B-4158-B42F-79F266265F1C</title>
    <g id="Page-1" stroke="none" stroke-width="1" fill="none" fill-rule="evenodd">
        <g id="CoBase---Task-Manager---Desktop" transform="translate(-45.000000, -142.000000)" fill="#0093EE">
            <g id="Options" transform="translate(0.000000, 91.000000)">
                <g id="Icon" transform="translate(30.000000, 37.000000)">
                    <path d="M22,30 L18,26.1783439 L19.41,24.8312102 L22,27.2961783 L28.59,21 L30,22.3566879 L22,30 Z M24,16 C24.55,16 25,16.45 25,17 C25,17.55 24.55,18 24,18 C23.45,18 23,17.55 23,17 C23,16.45 23.45,16 24,16 L24,16 Z M31,16 L26.82,16 C26.4,14.84 25.3,14 24,14 C22.7,14 21.6,14.84 21.18,16 L17,16 C15.9,16 15,16.9 15,18 L15,32 C15,33.1 15.9,34 17,34 L31,34 C32.1,34 33,33.1 33,32 L33,18 C33,16.9 32.1,16 31,16 L31,16 Z"></path>
                </g>
            </g>
        </g>
    </g>
</svg>