<?xml version="1.0" encoding="UTF-8"?>
<svg width="18px" height="18px" viewBox="0 0 18 18" version="1.1" xmlns="http://www.w3.org/2000/svg" xmlns:xlink="http://www.w3.org/1999/xlink">
    <title>8E9CCD24-18AE-46AB-8BB7-E09AE773E754</title>
    <g id="Page-1" stroke="none" stroke-width="1" fill="none" fill-rule="evenodd">
        <g id="CoBase---Page---Desktop" transform="translate(-45.000000, -211.000000)" fill="#81C926">
            <g id="Options" transform="translate(0.000000, 91.000000)">
                <g id="Section-Symbols-/-Blue-48px" transform="translate(30.000000, 105.000000)">
                    <path d="M26.7,28.5 L28.5,28.5 L28.5,24.9 L26.7,24.9 L26.7,28.5 Z M23.1,28.5 L24.9,28.5 L24.9,18.6 L23.1,18.6 L23.1,28.5 Z M18.6,29.4 L20.4,29.4 L20.4,22.2 L18.6,22.2 L18.6,29.4 Z M31,15 L17,15 C15.9,15 15,15.9 15,17 L15,31 C15,32.1 15.9,33 17,33 L31,33 C32.1,33 33,32.1 33,31 L33,17 C33,15.9 32.1,15 31,15 L31,15 Z" id="Icon"></path>
                </g>
            </g>
        </g>
    </g>
</svg>