<?xml version="1.0" encoding="UTF-8"?>
<svg width="16px" height="16px" viewBox="0 0 16 16" version="1.1" xmlns="http://www.w3.org/2000/svg" xmlns:xlink="http://www.w3.org/1999/xlink">
    <title>6B092225-A5BF-46E6-86F8-D3FA4B813B21</title>
    <g id="Page-1" stroke="none" stroke-width="1" fill="none" fill-rule="evenodd" stroke-opacity="0.05">
        <g id="Task-Manager" transform="translate(-369.000000, -408.000000)" fill="#4ECE3D" stroke="#000000">
            <g id="Attachments" transform="translate(318.000000, 405.000000)">
                <path d="M59,3.5 C61.07,3.5 62.9449603,4.34006706 64.3024466,5.69755339 C65.6599329,7.05503972 66.5,8.93 66.5,11 C66.5,13.07 65.6599329,14.9449603 64.3024466,16.3024466 C62.9449603,17.6599329 61.07,18.5 59,18.5 C56.93,18.5 55.0550397,17.6599329 53.6975534,16.3024466 C52.3400671,14.9449603 51.5,13.07 51.5,11 C51.5,8.93 52.3400671,7.05503972 53.6975534,5.69755339 C55.0550397,4.34006706 56.93,3.5 59,3.5 Z M60.3,6.5 L57.7,6.5 L57.7,9.7 L54.5,9.7 L54.5,12.3 L57.7,12.3 L57.7,15.5 L60.3,15.5 L60.3,12.3 L63.5,12.3 L63.5,9.7 L60.3,9.7 L60.3,6.5 Z" id="Add-Icon"></path>
            </g>
        </g>
    </g>
</svg>