<svg xmlns="http://www.w3.org/2000/svg" width="18" height="18" viewBox="0 0 18 18">
    <path fill="#FFF" fill-rule="evenodd" d="M14.31 13.851c-.234-.72-.909-1.251-1.71-1.251h-.9V9.9c0-.497-.403-.9-.9-.9H5.4V7.2h1.8c.497 0 .9-.403.9-.9V4.5h1.8c.994 0 1.8-.806 1.8-1.8v-.369C14.337 3.393 16.2 5.976 16.2 9c0 1.872-.72 3.573-1.89 4.851zM8.1 16.137C4.545 15.696 1.8 12.672 1.8 9c0-.558.072-1.098.189-1.611L6.3 11.7v.9c0 .994.806 1.8 1.8 1.8v1.737zM9 0C4.03 0 0 4.03 0 9c0 2.387.948 4.676 2.636 6.364C4.324 17.052 6.613 18 9 18s4.676-.948 6.364-2.636C17.052 13.676 18 11.387 18 9s-.948-4.676-2.636-6.364C13.676.948 11.387 0 9 0z"/>
</svg>
