<svg xmlns="http://www.w3.org/2000/svg" width="18" height="18" viewBox="0 0 18 18">
    <path fill="#FFF" fill-rule="evenodd" d="M17.85 16.394l-4.657-4.692c-.175-.175-.192-.446-.057-.654 1.91-2.929 1.464-6.957-1.353-9.363C9.072-.629 4.946-.55 2.319 1.861-.695 4.63-.77 9.34 2.092 12.204c2.442 2.444 6.221 2.741 8.997.905.208-.138.481-.12.657.057l4.647 4.682c.201.202.527.203.73.001l.726-.728c.2-.2.201-.525.001-.727zM3.547 10.75c-1.988-1.99-1.988-5.225 0-7.214 1.987-1.989 5.22-1.99 7.207 0 1.987 1.989 1.987 5.225 0 7.214-1.987 1.988-5.22 1.988-7.207 0z"/>
</svg>
