<svg xmlns="http://www.w3.org/2000/svg" width="18" height="18" viewBox="0 0 18 18">
    <path fill="#FFF" fill-rule="evenodd" d="M9.002 12.15c-1.786 0-3.238-1.413-3.238-3.15 0-1.737 1.452-3.15 3.238-3.15S12.24 7.263 12.24 9c0 1.737-1.452 3.15-3.238 3.15zm6.875-2.268c.037-.288.064-.576.064-.882 0-.306-.027-.594-.064-.882l1.952-1.485c.176-.135.222-.378.11-.576l-1.85-3.114c-.11-.198-.36-.27-.564-.198l-2.304.9c-.481-.36-1-.657-1.563-.882L11.306.378C11.278.162 11.084 0 10.853 0H7.152c-.232 0-.426.162-.454.378l-.351 2.385c-.565.225-1.083.531-1.564.882l-2.304-.9c-.213-.081-.453 0-.564.198L.065 6.057c-.121.198-.066.441.11.576l1.952 1.485c-.037.288-.064.585-.064.882 0 .297.027.594.064.882L.175 11.367c-.176.135-.222.378-.11.576l1.85 3.114c.11.198.36.27.564.198l2.304-.9c.481.36 1 .657 1.564.882l.351 2.385c.028.216.222.378.454.378h3.7c.232 0 .426-.162.454-.378l.352-2.385c.564-.225 1.082-.531 1.563-.882l2.304.9c.213.081.453 0 .564-.198l1.85-3.114c.112-.198.066-.441-.11-.576l-1.952-1.485z"/>
</svg>
