<svg xmlns="http://www.w3.org/2000/svg" width="48" height="48" viewBox="0 0 48 48">
    <g fill="#FACA00" fill-rule="evenodd">
        <rect width="48" height="48" fill-opacity=".2" rx="12"/>
        <path d="M30 32H18v-1.4c0-2 4-3.1 6-3.1s6 1.1 6 3.1V32zm-6-12c1.66 0 3 1.34 3 3s-1.34 3-3 3-3-1.34-3-3 1.34-3 3-3zm0-4c.55 0 1 .45 1 1s-.45 1-1 1-1-.45-1-1 .45-1 1-1zm7 0h-4.18c-.42-1.16-1.52-2-2.82-2-1.3 0-2.4.84-2.82 2H17c-1.1 0-2 .9-2 2v14c0 1.1.9 2 2 2h14c1.1 0 2-.9 2-2V18c0-1.1-.9-2-2-2z"/>
    </g>
</svg>
